<?xml version="1.0" standalone="no"?><!DOCTYPE svg PUBLIC "-//W3C//DTD SVG 1.1//EN" "http://www.w3.org/Graphics/SVG/1.1/DTD/svg11.dtd"><svg t="1547560719556" class="icon" style="" viewBox="0 0 1042 1024" version="1.1" xmlns="http://www.w3.org/2000/svg" p-id="2197" xmlns:xlink="http://www.w3.org/1999/xlink" width="203.515625" height="200"><defs><style type="text/css"></style></defs><path d="M996.935026 638.43242C989.023024 651.999109 974.475885 661.233578 957.648631 661.233578 940.821376 661.233578 926.274237 651.999109 918.362236 638.43242L912.046315 638.43242 912.046315 273.613894C912.046315 248.418615 891.639279 228.011579 866.443999 228.011579L273.613894 228.011579C248.418615 228.011579 228.011579 248.418615 228.011579 273.613894L228.011579 866.443999C228.011579 891.639279 248.418615 912.046315 273.613894 912.046315L638.43242 912.046315 638.43242 918.362236C651.999109 926.274237 661.233578 940.821376 661.233578 957.648631 661.233578 974.475885 651.999109 989.023024 638.43242 996.935026L638.43242 1003.250946 182.409263 1003.250946C157.213984 1003.250946 136.806947 982.84391 136.806947 957.648631L136.806947 182.409263C136.806947 157.213984 157.213984 136.806947 182.409263 136.806947L957.648631 136.806947C982.84391 136.806947 1003.250946 157.213984 1003.250946 182.409263L1003.250946 638.43242 996.935026 638.43242Z" p-id="2198"></path><path d="M980.449788 84.888711 980.449788 91.204631 91.204631 91.204631 91.204631 980.449788 84.888711 980.449788C76.976709 994.016477 62.42957 1003.250946 45.602316 1003.250946 28.775061 1003.250946 14.227923 994.016477 6.315921 980.449788L0 980.449788 0 136.806947 0 114.005789C0 51.051792 51.028991 0.022801 113.982988 0L980.449788 0 980.449788 6.315921C994.016477 14.227923 1003.250946 28.775061 1003.250946 45.602316 1003.250946 62.42957 994.016477 76.976709 980.449788 84.888711ZM319.21621 296.415052 820.841683 296.415052C846.036963 296.415052 866.443999 316.822089 866.443999 342.017368 866.443999 367.212648 846.036963 387.619684 820.841683 387.619684L319.21621 387.619684C294.020931 387.619684 273.613894 367.212648 273.613894 342.017368 273.613894 316.822089 294.020931 296.415052 319.21621 296.415052ZM319.21621 433.222 729.637052 433.222C754.832331 433.222 775.239368 453.629036 775.239368 478.824315 775.239368 503.996794 754.832331 524.426631 729.637052 524.426631L319.21621 524.426631C294.020931 524.426631 273.613894 503.996794 273.613894 478.824315 273.613894 453.629036 294.020931 433.222 319.21621 433.222ZM319.21621 570.028947 638.43242 570.028947C663.6277 570.028947 684.034736 590.435983 684.034736 615.631263 684.034736 640.803741 663.6277 661.233578 638.43242 661.233578L319.21621 661.233578C294.020931 661.233578 273.613894 640.803741 273.613894 615.631263 273.613894 590.435983 294.020931 570.028947 319.21621 570.028947Z" p-id="2199"></path><path d="M1041.32888 830.714585C1045.592697 852.056468 981.088221 861.382142 978.420485 874.698018 975.75275 888.036696 1028.902249 935.759519 1016.794834 953.840837 1004.687419 971.944957 946.088444 932.362147 934.756268 939.932131 923.446894 947.479314 933.570608 1019.348564 912.183122 1023.589579 890.818437 1027.830595 871.027032 957.876642 857.688354 955.231708 844.326876 952.563972 806.932977 1011.185749 788.806057 999.101136 770.701937 987.016522 799.91022 922.945268 792.340236 911.635894 784.770252 900.349321 723.184324 916.059319 718.920508 894.717435 714.679492 873.375551 774.350122 848.043465 776.995057 834.727589 779.662792 821.411712 731.347139 789.672501 743.454554 771.591182 755.58477 753.509864 809.3499 777.06346 820.659274 769.516277 831.99145 761.969094 826.67878 706.083456 848.066266 701.84244 869.430951 697.601425 884.38851 751.571766 897.749989 754.2167 911.088666 756.861634 953.316411 714.24627 971.443331 726.330884 989.570252 738.415498 955.528123 786.480338 963.098107 797.789713 970.645291 809.076286 1037.087865 809.395502 1041.32888 830.714585ZM879.987887 817.284703C854.792607 817.284703 834.385571 837.691739 834.385571 862.887018 834.385571 888.059497 854.792607 908.489334 879.987887 908.489334 905.160365 908.489334 925.590203 888.059497 925.590203 862.887018 925.590203 837.691739 905.160365 817.284703 879.987887 817.284703Z" p-id="2200"></path></svg>