<?xml version="1.0" standalone="no"?><!DOCTYPE svg PUBLIC "-//W3C//DTD SVG 1.1//EN" "http://www.w3.org/Graphics/SVG/1.1/DTD/svg11.dtd"><svg t="1547558952925" class="icon" style="" viewBox="0 0 1024 1024" version="1.1" xmlns="http://www.w3.org/2000/svg" p-id="2715" xmlns:xlink="http://www.w3.org/1999/xlink" width="200" height="200"><defs><style type="text/css"></style></defs><path d="M928 256c17.6 0 32-14.4 32-32v-64c0-52.8-43.2-96-96-96H160c-52.8 0-96 43.2-96 96v576c0 52.8 43.2 96 96 96h182.4l-16 64H224c-17.6 0-32 14.4-32 32s14.4 32 32 32h576c17.6 0 32-14.4 32-32s-14.4-32-32-32h-118.4l-16-64H864c52.8 0 96-43.2 96-96V416c0-17.6-14.4-32-32-32s-32 14.4-32 32v320c0 17.6-14.4 32-32 32H160c-17.6 0-32-14.4-32-32V160c0-17.6 14.4-32 32-32h704c17.6 0 32 14.4 32 32v64c0 17.6 14.4 32 32 32zM598.4 832l16 64H393.6l16-64h188.8z" fill="#211B13" p-id="2716"></path><path d="M673.6 512l-150.4-241.6c-6.4-9.6-16-16-27.2-14.4-11.2 0-22.4 6.4-27.2 16l-134.4 240H208c-17.6 0-32 14.4-32 32s14.4 32 32 32h144c11.2 0 22.4-6.4 27.2-16L496 350.4 627.2 560c6.4 9.6 16 14.4 27.2 14.4h128c17.6 0 32-14.4 32-32s-14.4-32-32-32h-108.8z" fill="#FFB243" p-id="2717"></path></svg>