<?xml version="1.0" standalone="no"?><!DOCTYPE svg PUBLIC "-//W3C//DTD SVG 1.1//EN" "http://www.w3.org/Graphics/SVG/1.1/DTD/svg11.dtd"><svg t="1547560812668" class="icon" style="" viewBox="0 0 1025 1024" version="1.1" xmlns="http://www.w3.org/2000/svg" p-id="2884" xmlns:xlink="http://www.w3.org/1999/xlink" width="200.1953125" height="200"><defs><style type="text/css"></style></defs><path d="M531.774574 785.746223l-39.534401 0c-18.874726 0-34.231186-15.444969-34.231186-34.422957l0-32.416734c-36.340671-9.677077-69.981791-29.311513-96.65276-56.395528l-44.970381 26.154662c-5.192578 3.038838-11.13749 4.654143-17.163536 4.654143-12.206984 0-23.5805-6.60136-29.680304-17.207791l-19.789328-34.62948c-9.396796-16.337444-3.805924-37.395413 12.494641-46.917598l45.302293-26.331681c-5.192578-18.778841-7.81837-37.646191-7.81837-56.211133 0-18.594445 2.618416-37.469171 7.81837-56.248012l-45.287542-26.36856c-16.30794-9.463178-21.935692-30.535899-12.538896-46.947101l19.80408-34.555722c6.092428-10.635934 17.47332-17.24467 29.680304-17.24467 6.011294 0 11.941454 1.607929 17.15616 4.646767l44.985133 26.176789c26.663593-27.106143 60.304713-46.725827 96.615881-56.366025l0-32.453613c0-18.977988 15.35646-34.415581 34.238562-34.415581l39.527025 0c18.896854 0 34.268065 15.437594 34.268065 34.415581l0 32.453613c36.340671 9.647574 69.989166 29.267258 96.65276 56.366025l45.014636-26.191541c5.185202-3.031462 11.122738-4.639391 17.134032-4.639391 12.229111 0 23.610003 6.608736 29.702432 17.237294l19.745073 34.577849c9.382044 16.285813 3.86493 37.351158-12.361876 46.917598l-45.390803 26.383312c5.155699 18.72721 7.774115 37.59456 7.774115 56.240636 0 18.623948-2.611041 37.483923-7.774115 56.203757l45.317045 26.331681c16.300565 9.56644 21.861934 30.617033 12.450386 46.961853l-19.700818 34.555722c-6.173562 10.658061-17.547078 17.237294-29.731935 17.237294l0 0c-5.996543 0-11.934079-1.607929-17.141408-4.646767l-44.999885-26.154662c-26.7226 27.098767-60.378472 46.733203-96.65276 56.395528l0 32.42411C566.035263 770.308629 550.664052 785.746223 531.774574 785.746223zM367.087241 625.705656l7.847874 8.939495c26.309554 29.95321 61.971649 50.775153 100.436556 58.630402l11.565287 2.367639 0 55.680074c0 3.024087 2.367639 5.487611 5.29584 5.487611l39.534401 0c2.935577 0 5.340094-2.463524 5.340094-5.487611l0-55.672698 11.565287-2.375014c38.383773-7.847874 74.06062-28.684568 100.451308-58.637778l7.847874-8.917368 65.268641 37.941224c2.537282 1.48254 5.782644 0.501556 7.228305-2.006223l19.678691-34.511467c1.556298-2.677423 0.663824-6.070301-1.947217-7.604472l-65.320272-37.955975 3.702662-11.166993c6.468595-19.472168 9.74346-39.121355 9.74346-58.401752 0-19.3099-3.274865-38.966463-9.74346-58.438631l-3.702662-11.166993 65.386654-37.978103c2.529907-1.497292 3.407629-4.912297 1.880834-7.552841l-19.752449-34.607353c-1.408782-2.456148-4.676271-3.444508-7.169298-1.97672L656.927507 398.29434l-7.847874-8.939495c-26.309554-29.95321-61.971649-50.753025-100.436556-58.593523l-11.572663-2.360263 0-55.731704c0-3.024087-2.389766-5.480235-5.332719-5.480235l-39.527025 0c-2.920825 0-5.303215 2.456148-5.303215 5.480235l0 55.731704-11.572663 2.360263c-38.428028 7.833122-74.075371 28.640313-100.392301 58.593523L367.087241 398.29434l-65.283393-37.985479c-2.55941-1.504668-5.731013-0.516307-7.161922 1.97672l-19.80408 34.555722c-1.519419 2.64792-0.626945 6.033422 1.97672 7.545465l65.335023 38.044485-3.695286 11.152242c-6.490723 19.545926-9.780339 39.209865-9.780339 58.438631 0 19.206638 3.289616 38.855826 9.780339 58.401752l3.695286 11.159617-65.327648 37.985479c-2.544658 1.489916-3.444508 4.9418-1.961968 7.530713l19.789328 34.622104c1.401406 2.441397 4.646767 3.444508 7.161922 1.954593L367.087241 625.705656z" p-id="2885"></path><path d="M512.007374 626.170333c-62.510084 0-113.36637-51.217702-113.36637-114.185087 0-62.989512 50.863662-114.221966 113.36637-114.221966s113.36637 51.232453 113.36637 114.221966C625.373744 574.945255 574.517458 626.170333 512.007374 626.170333zM512.007374 426.683875c-46.563559 0-84.431024 38.258384-84.431024 85.293995 0 47.006108 37.874841 85.257116 84.431024 85.257116s84.431024-38.251008 84.431024-85.257116C596.438398 464.942259 558.563557 426.683875 512.007374 426.683875z" p-id="2886"></path><path d="M512.007374 511.999998" p-id="2887"></path><path d="M512.007374 0C229.233144 0 0 229.233144 0 512.01475c0 282.759478 229.233144 511.985246 512.007374 511.985246s512.007374-229.225768 512.007374-511.985246C1024.014748 229.233144 794.781603 0 512.007374 0zM512.007374 999.032842c-268.974068 0-487.025468-218.051399-487.025468-487.018092 0-268.981444 218.051399-487.032844 487.025468-487.032844 268.98882 0 487.032844 218.051399 487.032844 487.032844C999.040217 780.988818 780.996194 999.032842 512.007374 999.032842z" p-id="2888"></path></svg>