<?xml version="1.0" standalone="no"?><!DOCTYPE svg PUBLIC "-//W3C//DTD SVG 1.1//EN" "http://www.w3.org/Graphics/SVG/1.1/DTD/svg11.dtd"><svg t="1546868068651" class="icon" style="" viewBox="0 0 1024 1024" version="1.1" xmlns="http://www.w3.org/2000/svg" p-id="1967" xmlns:xlink="http://www.w3.org/1999/xlink" width="200" height="200"><defs><style type="text/css"></style></defs><path d="M895.1 898H127.8V353.2h767.3V898z m-717.3-50h667.3V403.2H177.8V848z" fill="" p-id="1968"></path><path d="M720 403.2H306V283.5C306 181.8 388.8 99 490.5 99h45C637.2 99 720 181.8 720 283.5v119.7z m-364-50h314v-69.7c0-74.2-60.3-134.5-134.5-134.5h-45C416.3 149 356 209.3 356 283.5v69.7z" fill="" p-id="1969"></path><path d="M511.8 653.9m-75.9 0a75.9 75.9 0 1 0 151.8 0 75.9 75.9 0 1 0-151.8 0Z" fill="" p-id="1970"></path><path d="M511.8 678.9c-13.8 0-25-11.2-25-25V528c0-13.8 11.2-25 25-25s25 11.2 25 25v125.8c0 13.9-11.2 25.1-25 25.1z" fill="" p-id="1971"></path></svg>